<svg width="128" height="48" viewBox="0 0 128 48" fill="none" xmlns="http://www.w3.org/2000/svg">
  <path d="M44.6794 28.6474C44.0017 28.6474 43.3768 28.5329 42.8047 28.3039C42.2414 28.0661 41.7485 27.7357 41.3261 27.3129C40.9124 26.8813 40.5911 26.3748 40.3623 25.7934C40.1335 25.2121 40.019 24.5778 40.019 23.8908C40.019 23.2037 40.1291 22.5783 40.3491 22.0145C40.5691 21.4419 40.8816 20.9443 41.2865 20.5215C41.7001 20.0987 42.1798 19.7728 42.7255 19.5437C43.28 19.3147 43.8873 19.2002 44.5474 19.2002C44.9611 19.2002 45.3792 19.2707 45.8016 19.4116C46.2241 19.5437 46.6158 19.7287 46.9766 19.9665C47.3375 20.2044 47.6367 20.4774 47.8744 20.7857L47.3859 21.301C47.1923 21.0191 46.9414 20.7725 46.6334 20.5611C46.3253 20.3409 45.9909 20.1692 45.63 20.0458C45.2691 19.9225 44.9083 19.8608 44.5474 19.8608C43.9929 19.8608 43.478 19.9621 43.0028 20.1647C42.5363 20.3585 42.1314 20.636 41.7881 20.9971C41.4537 21.3583 41.1896 21.7855 40.996 22.2788C40.8112 22.7721 40.7188 23.3094 40.7188 23.8908C40.7188 24.4809 40.8156 25.0271 41.0092 25.5292C41.2028 26.0313 41.4757 26.4673 41.8278 26.8373C42.1886 27.1984 42.6067 27.4802 43.082 27.6829C43.566 27.8855 44.0985 27.9868 44.6794 27.9868C45.0315 27.9868 45.3792 27.9384 45.7224 27.8414C46.0745 27.7357 46.3913 27.5948 46.673 27.4186C46.9546 27.2336 47.1791 27.0267 47.3463 26.7976L47.7028 27.379C47.4915 27.6256 47.2187 27.8459 46.8842 28.0396C46.5586 28.2246 46.2021 28.3744 45.8148 28.4889C45.4364 28.5946 45.0579 28.6474 44.6794 28.6474ZM52.6777 28.5153L56.1895 19.2663H57.0873L60.5595 28.5153H59.8202L57.4306 22.1202C57.3249 21.8472 57.2325 21.6049 57.1533 21.3935C57.0829 21.1821 57.0125 20.9795 56.9421 20.7857C56.8716 20.592 56.8013 20.3894 56.7308 20.1779C56.6604 19.9578 56.5812 19.7111 56.4932 19.438H56.7176C56.6296 19.7287 56.546 19.9842 56.4668 20.2044C56.3963 20.4246 56.3216 20.636 56.2423 20.8386C56.1719 21.0323 56.0971 21.2394 56.0179 21.4596C55.9387 21.671 55.8463 21.9176 55.7407 22.1995L53.3643 28.5153H52.6777ZM54.1168 25.7274L54.3676 25.0667H58.896L59.1468 25.7274H54.1168ZM67.905 28.5153V23.904L67.9974 24.5514L64.2612 19.2663H65.0797L68.3539 23.9172H68.1294L71.166 19.2663H71.9317L68.3539 24.6968L68.5519 23.7983V28.5153H67.905ZM80.1548 28.5153L76.6826 19.2663H77.422L79.8116 25.6613C79.9172 25.9343 80.0052 26.1766 80.0756 26.388C80.1548 26.5994 80.2296 26.8021 80.3001 26.9958C80.3705 27.1896 80.4408 27.3922 80.5113 27.6036C80.5817 27.815 80.661 28.0616 80.7489 28.3435H80.3925C80.5157 27.9648 80.6213 27.6388 80.7093 27.3658C80.8062 27.0839 80.9029 26.8108 80.9998 26.5466C81.0966 26.2735 81.2198 25.952 81.3694 25.582L83.8515 19.2663H84.5644L80.9206 28.5153H80.1548ZM88.3305 28.5153L91.8423 19.2663H92.7401L96.2123 28.5153H95.473L93.0833 22.1202C92.9777 21.8472 92.8853 21.6049 92.8061 21.3935C92.7357 21.1821 92.6653 20.9795 92.5949 20.7857C92.5244 20.592 92.4541 20.3894 92.3836 20.1779C92.3132 19.9578 92.234 19.7111 92.146 19.438H92.3704C92.2824 19.7287 92.1988 19.9842 92.1196 20.2044C92.0491 20.4246 91.9744 20.636 91.8951 20.8386C91.8247 21.0323 91.7499 21.2394 91.6707 21.4596C91.5915 21.671 91.4991 21.9176 91.3935 22.1995L89.0171 28.5153H88.3305ZM89.7696 25.7274L90.0204 25.0667H94.5488L94.7996 25.7274H89.7696ZM102.067 28.5153V19.2663H102.674L109.091 27.6829L108.932 28.0264C108.923 27.9559 108.915 27.7709 108.906 27.4715C108.906 27.172 108.901 26.8153 108.893 26.4012C108.893 25.9784 108.888 25.5468 108.879 25.1064C108.879 24.6659 108.875 24.2563 108.866 23.8776C108.866 23.4988 108.866 23.2081 108.866 23.0055V19.2663H109.526V28.5153H108.893L102.437 20.0458L102.621 19.6759C102.63 19.8521 102.639 20.0987 102.648 20.4158C102.657 20.7329 102.666 21.0809 102.674 21.4596C102.683 21.8296 102.692 22.1951 102.701 22.5563C102.709 22.9086 102.714 23.2169 102.714 23.4812C102.723 23.7367 102.727 23.8995 102.727 23.9701V28.5153H102.067ZM120.527 28.6474C119.841 28.6474 119.202 28.5329 118.613 28.3039C118.032 28.0661 117.521 27.7402 117.081 27.3261C116.65 26.9033 116.311 26.4057 116.065 25.8331C115.827 25.2517 115.708 24.6175 115.708 23.9304C115.708 23.2433 115.827 22.6136 116.065 22.041C116.302 21.4596 116.632 20.9575 117.055 20.5347C117.477 20.1119 117.975 19.786 118.547 19.5569C119.119 19.3191 119.735 19.2002 120.395 19.2002C120.862 19.2002 121.324 19.2707 121.781 19.4116C122.239 19.5437 122.657 19.7287 123.035 19.9665C123.414 20.1956 123.713 20.4599 123.933 20.7593L123.484 21.2218C123.255 20.9575 122.969 20.7241 122.626 20.5215C122.292 20.3189 121.931 20.1603 121.544 20.0458C121.156 19.9225 120.782 19.8608 120.421 19.8608C119.858 19.8608 119.33 19.9621 118.837 20.1647C118.353 20.3674 117.926 20.6492 117.557 21.0104C117.196 21.3715 116.914 21.8031 116.712 22.3052C116.509 22.7985 116.408 23.3403 116.408 23.9304C116.408 24.5206 116.509 25.0623 116.712 25.5556C116.923 26.0489 117.218 26.4805 117.596 26.8505C117.975 27.2117 118.415 27.4935 118.916 27.6961C119.418 27.8898 119.964 27.9868 120.553 27.9868C121.046 27.9868 121.5 27.9163 121.913 27.7754C122.327 27.6256 122.683 27.4186 122.983 27.1544C123.291 26.8901 123.528 26.5818 123.696 26.2295C123.863 25.8771 123.946 25.494 123.946 25.0799V24.4457L124.184 24.7893H120.54V24.1286H124.567C124.576 24.1727 124.58 24.2431 124.58 24.34C124.589 24.4281 124.593 24.525 124.593 24.6307C124.602 24.7364 124.607 24.8289 124.607 24.9082C124.607 25.4455 124.501 25.9432 124.29 26.4012C124.087 26.8592 123.797 27.2556 123.418 27.5904C123.049 27.9252 122.617 28.185 122.124 28.37C121.632 28.5549 121.099 28.6474 120.527 28.6474Z" fill="black"/>
  <mask id="mask0_0_2819" style="mask-type:alpha" maskUnits="userSpaceOnUse" x="2" y="9" width="29" height="30">
    <path d="M30.9427 23.6904C30.9427 31.6149 24.4153 38.2453 16.5543 38.2453C8.69328 38.2453 2.26904 32.0278 2.26904 24.1033C2.26904 16.1789 8.69328 9.6001 16.5543 9.6001C24.4153 9.6001 30.9427 15.766 30.9427 23.6904Z" fill="#D9D9D9"/>
  </mask>
  <g mask="url(#mask0_0_2819)">
    <path d="M16.7964 6.29761C16.7992 6.18407 16.893 6.0941 17.0065 6.09623L24.395 6.23469C24.5087 6.23681 24.5991 6.33052 24.5974 6.44424L24.2447 29.6418C24.2419 29.8218 24.0263 29.9124 23.8961 29.788L16.4648 22.6932C16.4227 22.653 16.3995 22.597 16.4009 22.5387L16.7964 6.29761Z" fill="#F2A258"/>
    <path d="M1.79285 22.7891C1.66443 22.7871 1.56552 22.9019 1.58625 23.0288L2.75599 30.2033C2.77229 30.3032 2.85852 30.3765 2.9596 30.3765L22.792 30.3769C22.9784 30.3769 23.0692 30.149 22.9339 30.0206L15.5807 23.0474C15.5432 23.0117 15.4937 22.9915 15.4419 22.9908L1.79285 22.7891Z" fill="#FACC56"/>
    <path d="M25.0859 12.8165C25.0859 12.6711 25.2321 12.5712 25.3674 12.6243L30.1056 14.4816C30.1766 14.5094 30.2265 14.5742 30.2352 14.6501L31.5552 26.0806C31.5596 26.118 31.5536 26.1558 31.538 26.1901L28.1741 33.567C28.1155 33.6953 27.9485 33.7284 27.8455 33.632L24.9253 30.8998C24.8822 30.8596 24.8585 30.8028 24.8599 30.7438L25.0859 21.8043V12.8165Z" fill="#EE701F"/>
    <path d="M4.64343 30.8906C4.52853 30.8892 4.43457 30.982 4.43457 31.0971V32.4258C4.43457 32.4664 4.44654 32.506 4.46892 32.5399L7.53122 37.162C7.56258 37.2095 7.61229 37.2418 7.6684 37.2514L15.7002 38.625C15.7191 38.6283 15.7384 38.6289 15.7575 38.6268L22.7302 37.8627C22.7718 37.8582 22.811 37.8411 22.8425 37.8138L27.1541 34.0872C27.2485 34.0056 27.2495 33.8595 27.1563 33.7766L24.2434 31.1861C24.2064 31.1531 24.1586 31.1347 24.109 31.134L4.64343 30.8906Z" fill="#F8AA33"/>
    <path d="M7.40731 12.2568C7.41887 12.1892 7.46311 12.1319 7.52552 12.1036L15.4323 8.51962C15.5702 8.45711 15.7262 8.55959 15.7237 8.71108L15.5143 21.449C15.5113 21.6309 15.2917 21.7202 15.1627 21.5921L7.24404 13.7272C7.19628 13.6798 7.17473 13.6121 7.18608 13.5457L7.40731 12.2568Z" fill="#FCE95F"/>
    <path d="M3.00309 15.6672C2.93224 15.6966 2.88345 15.7629 2.87664 15.8394L2.3402 21.7923C2.32957 21.9107 2.42085 22.0137 2.53967 22.0171L14.2253 22.3572C14.4126 22.3626 14.5096 22.1356 14.3763 22.0039L6.59514 14.3144C6.53614 14.2561 6.44795 14.2388 6.37132 14.2706L3.00309 15.6672Z" fill="#FBC585"/>
  </g>
</svg>
